<svg width="100" height="100" viewBox="0 0 100 100" fill="none" xmlns="http://www.w3.org/2000/svg">
<rect width="100" height="100" rx="14" fill="#121212" style="fill:#121212;fill:color(display-p3 0.0706 0.0706 0.0706);fill-opacity:1;"/>
<path d="M17.1562 25.2051C15.8346 25.2051 14.6367 24.9186 13.5625 24.3457C12.4948 23.7728 11.6484 22.9297 11.0234 21.8164C10.3984 20.7031 10.0859 19.3424 10.0859 17.7344C10.0859 16.1133 10.3984 14.7461 11.0234 13.6328C11.6484 12.513 12.4948 11.6699 13.5625 11.1035C14.6367 10.5306 15.8346 10.2441 17.1562 10.2441C18.4779 10.2441 19.6725 10.5306 20.7402 11.1035C21.8079 11.6699 22.6543 12.513 23.2793 13.6328C23.9108 14.7461 24.2266 16.1133 24.2266 17.7344C24.2266 19.349 23.9108 20.7129 23.2793 21.8262C22.6543 22.9395 21.8079 23.7826 20.7402 24.3555C19.6725 24.9219 18.4779 25.2051 17.1562 25.2051ZM17.1562 21.748C17.8073 21.748 18.3542 21.5918 18.7969 21.2793C19.2461 20.9668 19.5846 20.5111 19.8125 19.9121C20.0404 19.3132 20.1543 18.5872 20.1543 17.7344C20.1543 16.875 20.0404 16.1458 19.8125 15.5469C19.5846 14.9414 19.2461 14.4824 18.7969 14.1699C18.3542 13.8574 17.8073 13.7012 17.1562 13.7012C16.5117 13.7012 15.9648 13.8574 15.5156 14.1699C15.0729 14.4824 14.7344 14.9414 14.5 15.5469C14.2721 16.1458 14.1582 16.875 14.1582 17.7344C14.1582 18.5872 14.2721 19.3132 14.5 19.9121C14.7344 20.5111 15.0729 20.9668 15.5156 21.2793C15.9648 21.5918 16.5117 21.748 17.1562 21.748ZM33.9012 25V10.4492H40.1414C41.2482 10.4492 42.2117 10.6608 43.032 11.084C43.8523 11.5072 44.4904 12.1029 44.9461 12.8711C45.4018 13.6393 45.6297 14.541 45.6297 15.5762C45.6297 16.6178 45.3986 17.5195 44.9363 18.2812C44.4741 19.0365 43.823 19.6224 42.9832 20.0391C42.1499 20.4492 41.1701 20.6543 40.0438 20.6543H36.2645V17.5H39.409C39.8582 17.5 40.2423 17.4219 40.5613 17.2656C40.8868 17.1029 41.1342 16.8783 41.3035 16.5918C41.4728 16.3053 41.5574 15.9668 41.5574 15.5762C41.5574 15.179 41.4728 14.8405 41.3035 14.5605C41.1342 14.2741 40.8868 14.056 40.5613 13.9062C40.2423 13.75 39.8582 13.6719 39.409 13.6719H37.8855V25H33.9012ZM55.1676 25V10.4492H65.9098V13.7207H59.152V16.084H65.3629V19.2676H59.152V21.7285H65.8902V25H55.1676ZM75.7504 25V10.4492H79.9887L83.4848 16.1621C83.7387 16.5723 83.9893 17.015 84.2367 17.4902C84.4906 17.959 84.7413 18.4733 84.9887 19.0332C85.2426 19.5931 85.4932 20.2116 85.7406 20.8887L85.35 21.2598C85.3174 20.7324 85.2816 20.127 85.2426 19.4434C85.2035 18.7533 85.1677 18.0794 85.1352 17.4219C85.1091 16.7643 85.0961 16.2174 85.0961 15.7812V10.4492H89.1586V25H84.9105L81.6586 19.6875C81.3461 19.1797 81.0499 18.6686 80.7699 18.1543C80.49 17.6335 80.21 17.0768 79.9301 16.4844C79.6501 15.8919 79.3441 15.2311 79.0121 14.502L79.5492 14.4238C79.6013 15.1074 79.6469 15.7845 79.6859 16.4551C79.725 17.1257 79.7543 17.7409 79.7738 18.3008C79.7999 18.8607 79.8129 19.3229 79.8129 19.6875V25H75.7504Z" fill="#E6E6E6" style="fill:#E6E6E6;fill:color(display-p3 0.9020 0.9020 0.9020);fill-opacity:1;"/>
<rect x="10" y="30" width="24" height="60" rx="4" fill="#E6E6E6" style="fill:#E6E6E6;fill:color(display-p3 0.9020 0.9020 0.9020);fill-opacity:1;"/>
<rect x="38" y="30" width="24" height="60" rx="4" fill="#E6E6E6" style="fill:#E6E6E6;fill:color(display-p3 0.9020 0.9020 0.9020);fill-opacity:1;"/>
<rect x="66" y="30" width="24" height="60" rx="4" fill="#E6E6E6" style="fill:#E6E6E6;fill:color(display-p3 0.9020 0.9020 0.9020);fill-opacity:1;"/>
<path d="M54 30H74V58C74 60.2091 72.2091 62 70 62H58C55.7909 62 54 60.2091 54 58V30Z" fill="#121212" style="fill:#121212;fill:color(display-p3 0.0706 0.0706 0.0706);fill-opacity:1;"/>
<path d="M26 30H46V58C46 60.2091 44.2091 62 42 62H30C27.7909 62 26 60.2091 26 58V30Z" fill="#121212" style="fill:#121212;fill:color(display-p3 0.0706 0.0706 0.0706);fill-opacity:1;"/>
</svg>
