<svg width="100" height="100" viewBox="0 0 100 100" fill="none" xmlns="http://www.w3.org/2000/svg">
<rect width="100" height="100" rx="14" fill="#121212" style="fill:#121212;fill:color(display-p3 0.0706 0.0706 0.0706);fill-opacity:1;"/>
<path d="M17.5 25.2051C16.1784 25.2051 14.9805 24.9186 13.9062 24.3457C12.8385 23.7728 11.9922 22.9297 11.3672 21.8164C10.7422 20.7031 10.4297 19.3424 10.4297 17.7344C10.4297 16.1133 10.7422 14.7461 11.3672 13.6328C11.9922 12.513 12.8385 11.6699 13.9062 11.1035C14.9805 10.5306 16.1784 10.2441 17.5 10.2441C18.8216 10.2441 20.0163 10.5306 21.084 11.1035C22.1517 11.6699 22.998 12.513 23.623 13.6328C24.2546 14.7461 24.5703 16.1133 24.5703 17.7344C24.5703 19.349 24.2546 20.7129 23.623 21.8262C22.998 22.9395 22.1517 23.7826 21.084 24.3555C20.0163 24.9219 18.8216 25.2051 17.5 25.2051ZM17.5 21.748C18.151 21.748 18.6979 21.5918 19.1406 21.2793C19.5898 20.9668 19.9284 20.5111 20.1562 19.9121C20.3841 19.3132 20.498 18.5872 20.498 17.7344C20.498 16.875 20.3841 16.1458 20.1562 15.5469C19.9284 14.9414 19.5898 14.4824 19.1406 14.1699C18.6979 13.8574 18.151 13.7012 17.5 13.7012C16.8555 13.7012 16.3086 13.8574 15.8594 14.1699C15.4167 14.4824 15.0781 14.9414 14.8438 15.5469C14.6159 16.1458 14.502 16.875 14.502 17.7344C14.502 18.5872 14.6159 19.3132 14.8438 19.9121C15.0781 20.5111 15.4167 20.9668 15.8594 21.2793C16.3086 21.5918 16.8555 21.748 17.5 21.748Z" fill="#E6E6E6" style="fill:#E6E6E6;fill:color(display-p3 0.9020 0.9020 0.9020);fill-opacity:1;"/>
<path d="M33.3555 25V10.4492H39.5957C40.7025 10.4492 41.666 10.6608 42.4863 11.084C43.3066 11.5072 43.9447 12.1029 44.4004 12.8711C44.8561 13.6393 45.084 14.541 45.084 15.5762C45.084 16.6178 44.8529 17.5195 44.3906 18.2812C43.9284 19.0365 43.2773 19.6224 42.4375 20.0391C41.6042 20.4492 40.6243 20.6543 39.498 20.6543H35.7188V17.5H38.8633C39.3125 17.5 39.6966 17.4219 40.0156 17.2656C40.3411 17.1029 40.5885 16.8783 40.7578 16.5918C40.9271 16.3053 41.0117 15.9668 41.0117 15.5762C41.0117 15.179 40.9271 14.8405 40.7578 14.5605C40.5885 14.2741 40.3411 14.056 40.0156 13.9062C39.6966 13.75 39.3125 13.6719 38.8633 13.6719H37.3398V25H33.3555Z" fill="#E6E6E6" style="fill:#E6E6E6;fill:color(display-p3 0.9020 0.9020 0.9020);fill-opacity:1;"/>
<path d="M54.1973 25V10.4492H64.9395V13.7207H58.1816V16.084H64.3926V19.2676H58.1816V21.7285H64.9199V25H54.1973Z" fill="#E6E6E6" style="fill:#E6E6E6;fill:color(display-p3 0.9020 0.9020 0.9020);fill-opacity:1;"/>
<path d="M74.291 25V10.4492H78.5293L82.0254 16.1621C82.2793 16.5723 82.5299 17.015 82.7773 17.4902C83.0312 17.959 83.2819 18.4733 83.5293 19.0332C83.7832 19.5931 84.0339 20.2116 84.2812 20.8887L83.8906 21.2598C83.8581 20.7324 83.8223 20.127 83.7832 19.4434C83.7441 18.7533 83.7083 18.0794 83.6758 17.4219C83.6497 16.7643 83.6367 16.2174 83.6367 15.7812V10.4492H87.6992V25H83.4512L80.1992 19.6875C79.8867 19.1797 79.5905 18.6686 79.3105 18.1543C79.0306 17.6335 78.7507 17.0768 78.4707 16.4844C78.1908 15.8919 77.8848 15.2311 77.5527 14.502L78.0898 14.4238C78.1419 15.1074 78.1875 15.7845 78.2266 16.4551C78.2656 17.1257 78.2949 17.7409 78.3145 18.3008C78.3405 18.8607 78.3535 19.3229 78.3535 19.6875V25H74.291Z" fill="#E6E6E6" style="fill:#E6E6E6;fill:color(display-p3 0.9020 0.9020 0.9020);fill-opacity:1;"/>
<rect x="10" y="30" width="24" height="60" rx="4" fill="#E6E6E6" style="fill:#E6E6E6;fill:color(display-p3 0.9020 0.9020 0.9020);fill-opacity:1;"/>
<rect x="38" y="30" width="24" height="60" rx="4" fill="#E6E6E6" style="fill:#E6E6E6;fill:color(display-p3 0.9020 0.9020 0.9020);fill-opacity:1;"/>
<rect x="66" y="30" width="24" height="60" rx="4" fill="#E6E6E6" style="fill:#E6E6E6;fill:color(display-p3 0.9020 0.9020 0.9020);fill-opacity:1;"/>
<path d="M54 30H74V58C74 60.2091 72.2091 62 70 62H58C55.7909 62 54 60.2091 54 58V30Z" fill="#121212" style="fill:#121212;fill:color(display-p3 0.0706 0.0706 0.0706);fill-opacity:1;"/>
<path d="M26 30H46V58C46 60.2091 44.2091 62 42 62H30C27.7909 62 26 60.2091 26 58V30Z" fill="#121212" style="fill:#121212;fill:color(display-p3 0.0706 0.0706 0.0706);fill-opacity:1;"/>
</svg>
